<svg width="503" height="422" viewBox="0 0 503 422" fill="none" xmlns="http://www.w3.org/2000/svg">
<path d="M427.5 6.5L498 56.5V177L455 199L445.668 203.053L500 243V360L449.5 385L395 406.5L342 414.5L277.5 419H224L146.5 410.5L79.5 393.5L31.5 369.5L3 355.5L7 235.5L65 203.053L53.5 199L3 172V56.5L79.5 3L106 17C120.333 21.1667 149.6 29.5 152 29.5C154.4 29.5 192.333 34.8333 211 37.5H289.5L358 29.5L427.5 6.5Z" fill="url(#paint0_linear_223_47)"/>
<path d="M3 56.5L44 85L114.5 107L211 123.5H289.5L383 110.5L465 79.5L498 56.5M3 56.5L79.5 3L106 17C120.333 21.1667 149.6 29.5 152 29.5C154.4 29.5 192.333 34.8333 211 37.5H289.5L358 29.5L427.5 6.5L498 56.5M3 56.5V172L53.5 199L65 203.053M498 56.5V177L455 199L445.668 203.053M65 203.053L114.5 220.5L177.5 235.5L224 240.5H293.5L347 235.5L405.5 220.5L445.668 203.053M65 203.053L7 235.5M7 235.5C23.6667 248 57.8 273.2 61 274C64.2 274.8 98 284.333 114.5 289L168.5 300.5L229.5 310.5H297.5L364 300.5L427.5 282L500 243M7 235.5L3 355.5L31.5 369.5L79.5 393.5L146.5 410.5L224 419H277.5L342 414.5L395 406.5L449.5 385L500 360V243M500 243L445.668 203.053" stroke="black" stroke-width="5"/>
<defs>
<linearGradient id="paint0_linear_223_47" x1="251.5" y1="3" x2="251.5" y2="419" gradientUnits="userSpaceOnUse">
<stop stop-color="#D9D9D9"/>
<stop offset="1" stop-color="#737373"/>
</linearGradient>
</defs>
</svg>
